#!OML:ASF X:\für Bonn\!DataBase\2005_08_11_Bastian_Final\c3d\Bastian.ASF
:FULLY-SPECIFIED
:DEGREES
80
root -6.0686 16.703 2.77853 543.83 37.1537 -171.426
lowerback 18.3727 1.03002 -4.46092
upperback 15.3181 3.47114 -1.43023
thorax 6.33762 2.49602 0.648287
lowerneck -11.0845 -15.1124 -26.6275
upperneck -7.69129 -17.741 38.5616
head 6.84696 -7.4662 15.8074
rclavicle 4.69132e-014 -2.70347e-014
rhumerus -6.26068 19.1046 -81.4788
rradius 58.8375
rwrist 9.94028
rhand -14.4702 4.44695
rfingers 7.12502
rthumb 11.6757 -25.2077
lclavicle 4.69132e-014 -2.70347e-014
lhumerus -32.0831 -16.5621 -265.965
lradius 11.1883
lwrist -339.771
lhand -12.1993 -8.29931
lfingers 7.12502
lthumb 13.8649 21.2185
rfemur 10.6823 -6.2986 28.1537
rtibia 44.8005
rfoot -9.38486 2.43003
rtoes -16.6509
lfemur -34.7822 -0.238173 -11.2461
ltibia 45.9894
lfoot -1.85016 -12.8827
ltoes -22.0893
81
root -6.02188 16.7248 2.6804 543.871 37.2311 -171.48
lowerback 18.7927 1.039 -4.60599
upperback 15.3236 3.45952 -1.42295
thorax 6.12732 2.48989 0.716434
lowerneck -11.0768 -15.1071 -26.5321
upperneck -7.82207 -17.7071 38.5843
head 6.79149 -7.45344 15.8034
rclavicle 1.98785e-014 -2.22639e-014
rhumerus -6.04193 19.3332 -81.246
rradius 58.907
rwrist 10.1573
rhand -14.4516 4.38243
rfingers 7.12502
rthumb 11.6937 -25.2712
lclavicle 1.98785e-014 -2.22639e-014
lhumerus -31.6922 -15.652 -266.493
lradius 11.1526
lwrist -340.753
lhand -12.1708 -8.08841
lfingers 7.12502
lthumb 13.8924 21.4276
rfemur 9.93687 -6.39898 27.8909
rtibia 46.1816
rfoot -7.69657 2.43717
rtoes -17.7258
lfemur -34.4301 -0.342999 -11.3768
ltibia 45.9941
lfoot -2.23979 -12.6903
ltoes -21.9549
82
root -5.97643 16.7444 2.58374 543.922 37.3178 -171.473
lowerback 19.2013 1.03802 -4.68892
upperback 15.3481 3.44766 -1.4151
thorax 5.9475 2.48998 0.752458
lowerneck -11.1092 -15.0992 -26.394
upperneck -7.92663 -17.6695 38.6078
head 6.74525 -7.43373 15.7916
rclavicle 3.02153e-014 -1.11319e-014
rhumerus -5.86064 19.2604 -81.1773
rradius 58.9269
rwrist 10.5894
rhand -14.3128 4.41021
rfingers 7.12502
rthumb 11.8275 -25.2358
lclavicle 3.02153e-014 -1.11319e-014
lhumerus -31.2957 -15.1059 -266.881
lradius 11.0719
lwrist -341.282
lhand -12.1532 -7.97018
lfingers 7.12502
lthumb 13.9094 21.5446
rfemur 9.16012 -6.48188 27.6816
rtibia 47.6614
rfoot -5.98033 2.46736
rtoes -19.1401
lfemur -34.071 -0.423354 -11.4602
ltibia 46.0311
lfoot -2.6163 -12.491
ltoes -21.737
83
root -5.93269 16.7622 2.48857 543.956 37.3902 -171.526
lowerback 19.5749 1.03383 -4.768
upperback 15.3632 3.43064 -1.42402
thorax 5.77704 2.48751 0.770666
lowerneck -11.1027 -15.0952 -26.2442
upperneck -8.06019 -17.64 38.6283
head 6.68465 -7.42294 15.774
rclavicle -3.18055e-014 3.18055e-015
rhumerus -5.74603 18.8996 -81.2474
rradius 58.9232
rwrist 11.2162
rhand -14.0756 4.47923
rfingers 7.12502
rthumb 12.0562 -25.1535
lclavicle -3.18055e-014 3.18055e-015
lhumerus -30.8431 -14.623 -267.271
lradius 10.9482
lwrist -341.738
lhand -12.1594 -7.85744
lfingers 7.12502
lthumb 13.9034 21.6578
rfemur 8.26536 -6.56335 27.4299
rtibia 49.3183
rfoot -4.38577 2.63947
rtoes -21.2053
lfemur -33.7904 -0.537676 -11.5983
ltibia 46.1488
lfoot -3.05653 -12.2913
ltoes -21.6505
84
root -5.88985 16.7774 2.39437 543.995 37.4756 -171.517
lowerback 19.9384 1.01544 -4.8183
upperback 15.3884 3.39932 -1.41346
thorax 5.62411 2.47883 0.797015
lowerneck -11.1323 -15.0757 -26.0782
upperneck -8.13835 -17.593 38.6107
head 6.63101 -7.40011 15.7407
rclavicle -7.95139e-016 0
rhumerus -5.66633 18.5851 -81.3174
rradius 58.9228
rwrist 11.8843
rhand -13.8346 4.56152
rfingers 7.12502
rthumb 12.2886 -25.0574
lclavicle -7.95139e-016 0
lhumerus -30.4078 -14.3723 -267.563
lradius 10.8227
lwrist -341.893
lhand -12.1973 -7.80037
lfingers 7.12502
lthumb 13.8669 21.7173
rfemur 7.34098 -6.61354 27.2371
rtibia 51.0594
rfoot -2.70582 2.7715
rtoes -23.5158
lfemur -33.4833 -0.615454 -11.6876
ltibia 46.2797
lfoot -3.50177 -12.1095
ltoes -21.4569
85
root -5.8475 16.7915 2.30204 543.995 37.5696 -171.534
lowerback 20.2602 1.01161 -4.88322
upperback 15.4355 3.39438 -1.416
thorax 5.51821 2.48391 0.81711
lowerneck -11.0837 -15.0427 -25.8522
upperneck -8.30028 -17.5252 38.6156
head 6.53141 -7.37669 15.7127
rclavicle 3.10104e-014 -1.27222e-014
rhumerus -5.64119 18.2235 -81.4343
rradius 58.9763
rwrist 12.4964
rhand -13.6346 4.59668
rfingers 7.12502
rthumb 12.4814 -25.0106
lclavicle 3.10104e-014 -1.27222e-014
lhumerus -29.9286 -14.3669 -267.795
lradius 10.6754
lwrist -341.785
lhand -12.2644 -7.75768
lfingers 7.12502
lthumb 13.8022 21.7644
rfemur 6.33904 -6.61441 27.0442
rtibia 52.9035
rfoot -1.00539 2.86935
rtoes -25.6178
lfemur -33.1483 -0.695822 -11.8031
ltibia 46.4039
lfoot -3.9424 -11.9147
ltoes -21.3015
